<svg width="128" height="128" viewBox="0 0 128 128" fill="none" xmlns="http://www.w3.org/2000/svg">
  <rect width="128" height="128" rx="24" fill="#3B82F6"/>
  <path d="M64 32C51.8497 32 42 41.8497 42 54V58C42 60.2091 43.7909 62 46 62C48.2091 62 50 60.2091 50 58V54C50 46.268 56.268 40 64 40C71.732 40 78 46.268 78 54V58C78 60.2091 79.7909 62 82 62C84.2091 62 86 60.2091 86 58V54C86 41.8497 76.1503 32 64 32Z" fill="white"/>
  <path d="M38 66C34.6863 66 32 68.6863 32 72V88C32 91.3137 34.6863 94 38 94H90C93.3137 94 96 91.3137 96 88V72C96 68.6863 93.3137 66 90 66H38Z" fill="white"/>
  <circle cx="64" cy="80" r="6" fill="#3B82F6"/>
</svg>
